<?xml version="1.0" encoding="UTF-8"?>
<svg version="1.1" xmlns="http://www.w3.org/2000/svg" width="3508" height="3508">
<path d="M0 0 C0.33 1.98 0.66 3.96 1 6 C0.27748047 6.35078613 -0.44503906 6.70157227 -1.18945312 7.06298828 C-17.26849959 14.90190433 -32.93260762 23.13866696 -48.27148438 32.36669922 C-50.82016182 33.89234812 -53.38259437 35.39045941 -55.953125 36.87890625 C-82.21013017 52.18260845 -107.29596789 70.00695792 -131 89 C-131.89074219 89.70769531 -132.78148437 90.41539062 -133.69921875 91.14453125 C-136.14020414 93.08735636 -138.57196701 95.04101884 -141 97 C-141.8353125 97.67160156 -142.670625 98.34320312 -143.53125 99.03515625 C-154.65458843 108.04833195 -165.44662697 117.45064927 -175.94628906 127.18188477 C-177.82624701 128.92184902 -179.71671634 130.6463675 -181.61914062 132.36206055 C-189.72320625 139.68549261 -197.48153706 147.32791015 -205.19262695 155.06225586 C-207.32324634 157.19827357 -209.45921223 159.32884118 -211.59570312 161.45898438 C-212.9768835 162.84082507 -214.35775389 164.22297567 -215.73828125 165.60546875 C-216.36446854 166.22963181 -216.99065582 166.85379486 -217.63581848 167.49687195 C-221.95354139 171.83722553 -226.00897276 176.35907429 -230 181 C-231.01065676 182.15587734 -232.0222093 183.31097288 -233.03515625 184.46484375 C-245.61432608 198.86959007 -257.69820791 213.56948192 -269 229 C-269.51385254 229.69673828 -270.02770508 230.39347656 -270.55712891 231.11132812 C-289.11502763 256.29664007 -305.775029 282.68001516 -321 310 C-321.51530273 310.92087402 -322.03060547 311.84174805 -322.56152344 312.79052734 C-342.21848467 348.04604335 -358.6751768 384.90076295 -372 423 C-372.34677795 423.98749237 -372.34677795 423.98749237 -372.70056152 424.99493408 C-399.46489651 501.29684501 -416.09897331 581.70998192 -339.9942627 917.1026001 C-331.75050493 934.21955044 -322.989487 950.9619633 -313.47753906 967.41210938 C-311.56699282 970.7584065 -309.73128125 974.14244255 -307.8984375 977.53173828 C-301.35727631 989.61710736 -294.26180463 1001.33606567 -287 1013 C-286.46068848 1013.86753906 -285.92137695 1014.73507812 -285.36572266 1015.62890625 C-265.84447344 1046.92023262 -245.03597343 1077.43019376 -223 1107 C-222.48727539 1107.6904541 -221.97455078 1108.3809082 -221.44628906 1109.09228516 C-215.73008849 1116.78888703 -209.93624906 1124.42289645 -204.0625 1132 C-203.55009766 1132.66265869 -203.03769531 1133.32531738 -202.50976562 1134.00805664 C-200.68665826 1136.34954755 -198.84241688 1138.67365714 -197 1141 C-196.57817873 1141.54012816 -196.15635745 1142.08025633 -195.72175372 1142.63675201 C-187.1602779 1153.57836887 -177.90513471 1163.5168118 -168.05541992 1173.30102539 C-166.49936382 1174.85787474 -164.94396339 1176.41537965 -163.38916016 1177.97348022 C-159.2124118 1182.15530781 -155.02650313 1186.32784937 -150.83860564 1190.49850774 C-146.43701374 1194.88493051 -142.04365883 1199.27958956 -137.64924622 1203.67320251 C-130.2800519 1211.03872005 -122.90527362 1218.39860658 -115.52661133 1225.75463867 C-107.95349544 1233.30457448 -100.38485872 1240.85895743 -92.8215332 1248.41870117 C-91.8883052 1249.35148708 -90.95507719 1250.284273 -89.99356955 1251.24532515 C-89.06395968 1252.17449718 -88.13434981 1253.10366921 -87.17656994 1254.06099796 C-79.0276552 1262.2059278 -70.87449028 1270.34659936 -62.72063661 1278.48658442 C-60.11156171 1281.09157283 -57.50306433 1283.69713846 -54.89464378 1286.30278206 C-50.79383343 1290.39868143 -46.69037306 1294.49190829 -42.58487701 1298.58311081 C-41.08286186 1300.08062438 -39.5816685 1301.57896276 -38.08137703 1303.0782032 C-36.02682 1305.13099869 -33.96920952 1307.18068561 -31.91081238 1309.22962952 C-31.32432189 1309.81698649 -30.7378314 1310.40434346 -30.13356847 1311.00949913 C-27.19666493 1313.92632141 -24.2018344 1316.72419767 -21.06853962 1319.4297781 C-16.85881249 1323.07541054 -12.91896412 1326.94731254 -8.99255371 1330.8939209 C-8.22773855 1331.6585872 -7.46292338 1332.42325351 -6.674932 1333.21109152 C-4.1318174 1335.75489647 -1.59228772 1338.3022495 0.94726562 1340.84960938 C2.77758369 1342.68184807 4.60813065 1344.51385814 6.43888855 1346.34565735 C10.37181943 1350.28146484 14.30297248 1354.21904067 18.23295593 1358.15779114 C23.92314223 1363.86057684 29.61660556 1369.56008204 35.31094843 1375.258717 C44.562087 1384.51691147 53.81135504 1393.77697208 63.05908203 1403.03857422 C63.6117045 1403.5920245 64.16432696 1404.14547478 64.73369557 1404.71569628 C69.21703868 1409.20578341 73.70029093 1413.69596128 78.18353939 1418.18614292 C82.10262309 1422.11127963 86.02174309 1426.0363801 89.94091797 1429.96142578 C90.49286113 1430.51419707 91.04480429 1431.06696835 91.613473 1431.63649029 C100.82836072 1440.86508099 110.04522514 1450.09169506 119.26349211 1459.31691027 C124.94106803 1464.99895671 130.61686372 1470.68277028 136.29034364 1476.36890662 C140.63968462 1480.72769734 144.99158541 1485.08392389 149.34441566 1489.43922997 C151.12543889 1491.22212209 152.90559899 1493.00587693 154.68482018 1494.7905674 C157.11841114 1497.23140194 159.5551015 1499.66910131 161.99255371 1502.1060791 C162.69140135 1502.8085217 163.39024899 1503.51096431 164.11027384 1504.23469305 C167.31940848 1507.43716926 170.56826086 1510.53623429 174 1513.5 C178.19017841 1517.11877945 182.10387221 1520.97026634 186.00744629 1524.8939209 C186.77226145 1525.6585872 187.53707662 1526.42325351 188.325068 1527.21109152 C190.8681826 1529.75489647 193.40771228 1532.3022495 195.94726562 1534.84960938 C197.77758369 1536.68184807 199.60813065 1538.51385814 201.43888855 1540.34565735 C205.37181943 1544.28146484 209.30297248 1548.21904067 213.23295593 1552.15779114 C218.92314223 1557.86057684 224.61660556 1563.56008204 230.31094843 1569.258717 C239.562087 1578.51691147 248.81135504 1587.77697208 258.05908203 1597.03857422 C258.6117045 1597.5920245 259.16432696 1598.14547478 259.73369557 1598.71569628 C264.21703868 1603.20578341 268.70029093 1607.69596128 273.18353939 1612.18614292 C277.10262309 1616.11127963 281.02174309 1620.0363801 284.94091797 1623.96142578 C285.49286113 1624.51419707 286.04480429 1625.06696835 286.613473 1625.63649029 C295.82836072 1634.86508099 305.04522514 1644.09169506 314.26349211 1653.31691027 C319.94106803 1658.99895671 325.61686372 1664.68277028 331.29034364 1670.36890662 C335.63968462 1674.72769734 339.99158541 1679.08392389 344.34441566 1683.43922997 C346.12543889 1685.22212209 347.90559899 1687.00587693 349.68482018 1688.7905674 C352.11841114 1691.23140194 354.5551015 1693.66910131 356.99255371 1696.1060791 C357.69140135 1696.8085217 358.39024899 1697.51096431 359.11027384 1698.23469305 C362.31940848 1701.43716926 365.56826086 1704.53623429 369 1707.5 C373.19017841 1711.11877945 377.10387221 1714.97026634 381.00744629 1718.8939209 C381.77226145 1719.6585872 382.53707662 1720.42325351 383.325068 1721.21109152 C385.8681826 1723.75489647 388.40771228 1726.3022495 390.94726562 1728.84960938 C392.77758369 1730.68184807 394.60813065 1732.51385814 396.43888855 1734.34565735 C400.37181943 1738.28146484 404.30297248 1742.21904067 408.23295593 1746.15779114 C413.92314223 1751.86057684 419.61660556 1757.56008204 425.31094843 1763.258717 C434.562087 1772.51691147 443.81135504 1781.77697208 453.05908203 1791.03857422 C453.6117045 1791.5920245 454.16432696 1792.14547478 454.73369557 1792.71569628 C459.21703868 1797.20578341 463.70029093 1801.69596128 468.18353939 1806.18614292 C472.10262309 1810.11127963 476.02174309 1814.0363801 479.94091797 1817.96142578 C480.49286113 1818.51419707 481.04480429 1819.06696835 481.613473 1819.63649029 C490.82836072 1828.86508099 500.04522514 1838.09169506 509.26349211 1847.31691027 C514.94106803 1852.99895671 520.61686372 1858.68277028 526.29034364 1864.36890662 C530.63968462 1868.72769734 534.99158541 1873.08392389 539.34441566 1877.43922997 C541.12543889 1879.22212209 542.90559899 1881.00587693 544.68482018 1882.7905674 C547.11841114 1885.23140194 549.5551015 1887.66910131 551.99255371 1890.1060791 C552.69140135 1890.8085217 553.39024899 1891.51096431 554.11027384 1892.23469305 C558.00651781 1896.12285296 562.01906095 1899.80138099 566.18482006 1903.39834023 C568.61714679 1905.54455163 570.85965706 1907.83545363 573.09236145 1910.18743896 C573.54411057 1910.66091176 573.99585968 1911.13438456 574.46129817 1911.62220502 C575.43590263 1912.64417284 576.40902795 1913.667553 577.38077736 1914.69223595 C580.09358357 1917.55203345 582.81864931 1920.40012554 585.54219055 1923.24969482 C586.12006903 1923.85483429 586.69794751 1924.45997376 587.29333746 1925.08345079 C595.4133474 1933.57859353 603.62203457 1941.98798502 611.82603931 1950.40189743 C618.48374915 1957.23500158 625.10874834 1964.09501305 631.66577148 1971.02490234 C637.41354025 1977.09925916 643.21816644 1983.1124664 649.09347552 1989.06363702 C652.18905892 1992.20324773 655.25147495 1995.36325255 658.24643898 1998.59923553 C671.31309798 2012.67703384 681.71335491 2022.01290156 701.55737305 2022.99023438 C705.79377735 2023.12845172 710.01797799 2023.10413313 714.25494862 2023.01533985 C719.37642938 2022.9943621 724.32111909 2023.58887115 729.375 2024.359375 C730.99336885 2024.58662481 732.61177145 2024.81363458 734.23022461 2025.0402832 C735.82033673 2025.27559534 737.41025844 2025.51219726 739 2025.75 C739.86223175 2025.87627777 740.7244635 2026.00255554 741.61282349 2026.13265991 C802.76781228 2035.12161284 862.90031177 2051.85403328 919 2078 C920.01674805 2078.47260254 921.03349609 2078.94520508 922.08105469 2079.43212891 C986.02448276 2109.30897245 1047.48801792 2148.58377352 1097.171875 2199.20703125 C1099.06676116 2201.06547729 1101.03976594 2202.78222012 1103.0625 2204.5 C1106.40722863 2207.37711608 1109.23807401 2210.47051201 1112.0859375 2213.83203125 C1114.29225484 2216.33102333 1116.62683693 2218.65910047 1119 2221 C1123.21685089 2225.17886124 1127.15268112 2229.48324764 1131 2234 C1131.87926737 2235.00473049 1132.75956223 2236.0085623 1133.640625 2237.01171875 C1140.8629126 2245.27730608 1147.60115675 2253.84565713 1154.19140625 2262.62084961 C1155.5286899 2264.38000582 1156.88287767 2266.12634079 1158.24609375 2267.86547852 C1164.81915472 2276.25484719 1170.86159792 2284.93167779 1176.75 2293.8125 C1177.22800049 2294.53165588 1177.70600098 2295.25081177 1178.19848633 2295.99176025 C1192.2877746 2317.22706709 1204.55251876 2339.23004901 1216 2362 C1216.4532666 2362.89187012 1216.9065332 2363.78374023 1217.37353516 2364.70263672 C1235.6208572 2400.76966396 1247.13615008 2439.50750246 1258.125 2478.25 C1258.46118347 2479.43476929 1258.79736694 2480.61953857 1259.14373779 2481.84020996 C1260.10315578 2485.23070702 1261.05684903 2488.62274791 1262.0078125 2492.015625 C1262.29581726 2493.03603882 1262.58382202 2494.05645264 1262.8805542 2495.10778809 C1266.41023773 2507.78247545 1267.84640073 2519.88378117 1261.38671875 2531.890625 C1254.70900825 2542.04826915 1246.88650562 2548.32201283 1235.21378646 2551.37957488 C1229.23348366 2552.53407912 1223.23430544 2552.40924548 1217.16608703 2552.37604749 C1215.67858182 2552.37902626 1214.19107877 2552.38331933 1212.70358066 2552.38879583 C1208.6176768 2552.40003947 1204.53198794 2552.39266197 1200.44608981 2552.38222598 C1195.98377576 2552.37416189 1191.52149215 2552.38357986 1187.05918127 2552.39073652 C1179.20888449 2552.40091609 1171.35865017 2552.39992204 1163.50835203 2552.39168589 C1151.75619083 2552.37941173 1140.00408034 2552.38443262 1128.251918 2552.39283381 C1108.22352109 2552.40664192 1088.19514702 2552.40617985 1068.16674805 2552.39799118 C1047.86603456 2552.38974168 1027.56533612 2552.38799296 1007.26462173 2552.39420319 C1005.9831148 2552.3945907 1004.70160786 2552.39497822 1003.38126738 2552.39537748 C998.16202144 2552.39697727 992.94277552 2552.39862339 987.72352961 2552.40032831 C973.01117911 2552.40513089 958.29882847 2552.40890888 943.58647752 2552.41196942 C942.91229255 2552.41211013 942.23810757 2552.41225083 941.54349275 2552.4123958 C908.30573652 2552.41923301 875.06798296 2552.41462329 841.8302269 2552.40888596 C840.37414624 2552.40863505 838.91806559 2552.40838415 837.46198493 2552.40813327 C836.74034761 2552.4080089 836.01871028 2552.40788453 835.27520515 2552.4077564 C825.75883629 2552.40611687 816.24246742 2552.40450704 806.72609854 2552.40297651 C805.63498421 2552.40280029 805.63498421 2552.40280029 804.52182717 2552.4026205 C770.8221927 2552.39721823 737.12255957 2552.39850172 703.42292491 2552.40126788 C699.74723629 2552.40156727 696.07154767 2552.40185377 692.39585904 2552.40214171 C681.31707746 2552.40301347 670.23829588 2552.40390429 659.15951431 2552.4048345 C625.37526444 2552.40766817 591.59101457 2552.40946884 557.8067646 2552.41037941 C556.6783914 2552.41041032 556.6783914 2552.41041032 555.52722278 2552.41044185 C506.80566859 2552.41175818 458.08411591 2552.40845518 409.36256218 2552.40183067 C408.19576117 2552.40167264 408.19576117 2552.40167264 407.00538841 2552.40151142 C380.95012432 2552.3979823 354.89486025 2552.39421413 328.83959619 2552.39042152 C250.04298246 2552.37895967 171.2463741 2552.37267979 30.52290649 2552.39076752 C4.47178791 2552.3945571 -21.57933068 2552.39830262 -47.6304493 2552.40183067 C-48.40816748 2552.40193641 -49.18588566 2552.40204214 -49.98717105 2552.40215108 C-98.68489786 2552.40876609 -147.38262363 2552.41171334 -196.08035088 2552.41037941 C-196.83233739 2552.41035914 -197.58432391 2552.41033887 -198.3590979 2552.41031799 C-232.12329412 2552.40939786 -265.88749023 2552.40748303 -299.65168635 2552.4046479 C-310.72500768 2552.40371924 -321.79832901 2552.40283624 -332.87165034 2552.40196876 C-336.54502462 2552.40168078 -340.2183989 2552.40138872 -343.89177318 2552.40108718 C-377.59276598 2552.39832921 -411.29375697 2552.39753409 -444.99474955 2552.40297651 C-445.72177672 2552.40309343 -446.4488039 2552.40321034 -447.1978622 2552.4033308 C-456.70993274 2552.40486622 -466.22200326 2552.40649414 -475.73407378 2552.40813327 C-476.4552257 2552.40825751 -477.17637762 2552.40838175 -477.91938263 2552.40850975 C-479.37431048 2552.40876044 -480.82923833 2552.40901133 -482.28416618 2552.40926245 C-515.47648641 2552.41497634 -548.66880347 2552.41889771 -581.8611238 2552.41196942 C-582.53432902 2552.41182936 -583.20753423 2552.4116893 -583.90113961 2552.41154499 C-599.24143801 2552.40831708 -614.58173599 2552.40405589 -629.92203392 2552.39904372 C-635.12383055 2552.39738659 -640.3256272 2552.39577649 -645.52742386 2552.39420319 C-646.80406966 2552.39381257 -648.08071547 2552.39342195 -649.39604751 2552.39301949 C-669.64684253 2552.38709212 -689.89762255 2552.39123286 -710.14841622 2552.3995102 C-730.03954519 2552.40742761 -749.93064874 2552.40469416 -769.82177447 2552.39046794 C-781.49697337 2552.38243721 -793.17210271 2552.38267225 -804.84729835 2552.39491273 C-812.59001455 2552.40221581 -820.33267631 2552.39874324 -828.07538588 2552.38631217 C-832.47168512 2552.37956015 -836.86784533 2552.37755202 -841.2641386 2552.38876172 C-845.2519929 2552.39884265 -849.2395872 2552.39515568 -853.22742492 2552.3804376 C-854.65844542 2552.37756812 -856.0894871 2552.37971433 -857.52048922 2552.38751461 C-869.04828975 2552.44601407 -878.46121053 2551.27777843 -887 2543 C-892.44249933 2536.20378256 -894.24945555 2529.10930539 -894.251849 2520.43332523 C-894.25477786 2519.69905245 -894.25770673 2518.96477967 -894.26072434 2518.20825621 C-894.26810147 2515.74754898 -894.26125262 2513.28709049 -894.25447559 2510.82638454 C-894.2568655 2509.03687835 -894.26013072 2507.24737315 -894.26419219 2505.45786998 C-894.27283554 2500.52175708 -894.26897606 2495.58571995 -894.26313647 2490.64960584 C-894.25897589 2485.2864208 -894.26636261 2479.92324984 -894.27228898 2474.56006819 C-894.28106661 2465.15401285 -894.28235755 2455.74797927 -894.27878571 2446.34192085 C-894.27348817 2432.35464389 -894.27956447 2418.36738807 -894.28786864 2404.3801134 C-894.30271003 2378.67383954 -894.30495633 2352.96757584 -894.30254826 2327.26129861 C-894.30220981 2323.61804061 -894.30188772 2319.97478261 -894.30158257 2316.33152461 C-894.30152153 2315.60788879 -894.30146049 2314.88425297 -894.30139759 2314.1386888 C-894.30012594 2298.10508448 -894.30272666 2282.07148149 -894.30610864 2266.03787757 C-894.30687939 2262.37728373 -894.30762411 2258.71668988 -894.30837366 2255.05609604 C-894.30867535 2253.58695289 -894.30897723 2252.11780974 -894.3092793 2250.64866659 C-894.30942898 2249.92043926 -894.30957866 2249.19221192 -894.30973287 2248.44191709 C-894.3100364 2246.96891962 -894.31034109 2245.49592214 -894.31064692 2244.02292467 C-894.31932149 2202.22025144 -894.32396282 2160.41757938 -894.31969929 2118.61490536 C-894.31962123 2117.84067638 -894.31954317 2117.0664474 -894.31946275 2116.26875693 C-894.31858994 2107.63520119 -894.31766068 2099.00164546 -894.31671212 2090.36808973 C-894.31662661 2089.58860139 -894.3165411 2088.80911305 -894.316453 2088.00600385 C-894.3157422 2081.52902351 -894.3157422 2081.52902351 -894.31541077 2078.54905737 C-894.30987593 2028.69879463 -894.3174138 1978.84855041 -894.33618164 1928.99829102 C-894.34090386 1916.43976056 -894.34558438 1903.8812301 -894.3500185 1891.32269955 C-894.35029182 1890.54941873 -894.35056515 1889.77613791 -894.35084675 1888.97942434 C-894.35921864 1865.14473045 -894.36389777 1841.3100381 -894.36472607 1817.47534275 C-894.36475243 1816.72697954 -894.3647788 1815.97861634 -894.36480596 1815.20757546 C-894.36534676 1798.77880151 -894.36497426 1782.35002768 -894.36376625 1765.92125377 C-894.36334063 1760.04262161 -894.3629755 1754.16398944 -894.36263681 1748.28535728 C-894.36255151 1746.82290236 -894.36246257 1745.36044744 -894.36236999 1743.89799252 C-894.36092145 1720.59867292 -894.36804604 1697.29936591 -894.37937395 1674.00004933 C-894.3910261 1649.87757673 -894.39158462 1625.75512845 -894.37953053 1601.63265549 C-894.37289211 1587.72494645 -894.37455559 1573.81729657 -894.38811904 1559.90959224 C-894.39634777 1550.62148112 -894.3936865 1541.33341444 -894.38214377 1532.04530695 C-894.37587168 1526.75193548 -894.37432698 1521.45867968 -894.38600711 1516.16531479 C-894.39654367 1511.34587539 -894.3931729 1506.5266497 -894.37890258 1501.70722174 C-894.37618322 1499.97834299 -894.37844086 1498.24944703 -894.38640973 1496.52058451 C-894.47718405 1475.37685789 -889.96899084 1458.92756843 -875.203125 1443.0703125 C-863.23456662 1431.56208329 -847.35430378 1427.72243056 -831.23852539 1427.84204102 C-823.76390503 1428.04941838 -816.35291057 1429.03116337 -808.9375 1429.9375 C-719.74549147 1440.60756593 -626.91128712 1429.57947897 -529 1387 C-527.34262974 1386.25350244 -525.68508795 1385.50738555 -524.02734375 1384.76171875 C-486.41976953 1367.62512788 -451.16116323 1344.05871317 -420 1317 C-419.26523438 1316.36578125 -418.53046875 1315.7315625 -417.7734375 1315.078125 C-415.83811406 1313.39724648 -413.91816022 1311.70043411 -412 1310 C-411.27345215 1309.35828857 -410.5469043 1308.71657715 -409.79833984 1308.05541992 C-403.60397288 1302.53846339 -397.66369004 1296.81567478 -391.8125 1290.9375 C-390.96236328 1290.09123047 -390.11222656 1289.24496094 -389.23632812 1288.37304688 C-384.28195853 1283.41102574 -379.54857081 1278.33499572 -375 1273 C-374.154375 1272.03578125 -373.30875 1271.0715625 -372.4375 1270.078125 C-361.34783904 1257.21127478 -350.63833533 1243.65491908 -342 1229 C-342.39155273 1228.58339111 -342.78310547 1228.16678223 -343.18652344 1227.73754883 C-347.12854188 1223.54181905 -351.06573709 1219.34161224 -354.99902344 1215.13769531 C-356.24610239 1213.80540843 -357.49400507 1212.47389152 -358.74316406 1211.14355469 C-364.68971904 1204.80706168 -370.41016352 1198.39293155 -375.85546875 1191.61328125 C-377.99874956 1189.00152377 -380.2238033 1186.49634698 -382.5 1184 C-394.09182211 1171.24498467 -404.46001221 1157.36009051 -414.9375 1143.6875 C-415.5569751 1142.88328613 -416.1764502 1142.07907227 -416.81469727 1141.25048828 C-427.33600419 1127.46991487 -437.07485963 1113.1103804 -446.6875 1098.6875 C-447.20302429 1097.91441498 -447.71854858 1097.14132996 -448.24969482 1096.34481812 C-496.73662309 1023.50631663 -534.81630013 943.5335278 -573.55883789 556.1003418 C-567.65118895 526.77154975 -559.54896028 498.40096609 -549.7467041 470.15875244 C-549.02436854 468.07045045 -548.3090657 465.97989826 -547.59667969 463.88818359 C-530.21564337 412.8832763 -507.09377114 363.96762657 -479 318 C-477.85403049 316.10685326 -476.70819149 314.2136275 -475.5625 312.3203125 C-453.29738756 275.73931215 -427.24600785 241.00553671 -398.25390625 209.47265625 C-396.35427522 207.38865895 -394.51299893 205.27343731 -392.6875 203.125 C-388.92097485 198.77416903 -384.81779196 194.76384117 -380.70581055 190.74267578 C-378.10881175 188.18677493 -375.63052069 185.62029478 -373.32421875 182.796875 C-371.4404088 180.52997093 -369.70006887 178.72757317 -367.4375 176.875 C-363.76805774 173.75354628 -360.38019184 170.42611979 -357 167 C-352.49416978 162.45032927 -347.891511 158.13633035 -343 154 C-341.98610983 153.12340031 -340.97317344 152.24569686 -339.9609375 151.3671875 C-314.80208337 129.57834155 -288.23567563 109.64662126 -260 92 C-259.00532715 91.37754395 -258.0106543 90.75508789 -256.98583984 90.11376953 C-239.69453125 79.34234524 -222.14016359 69.29067034 -204 60 C-202.92524414 59.44892578 -201.85048828 58.89785156 -200.74316406 58.33007812 C-141.87402931 28.43797861 -67.19547515 -0.79035789 0 0 Z M-226 1343 C-227.45245091 1344.81246011 -228.8573638 1346.64216805 -230.25 1348.5 C-238.4442762 1359.28257672 -246.88461275 1369.87984813 -256.04296875 1379.86328125 C-257.79511485 1381.77630304 -259.49700766 1383.72015283 -261.1875 1385.6875 C-272.94695678 1399.1539747 -285.2947604 1412.67341658 -298.95703125 1424.23828125 C-301.10510841 1426.09063842 -303.18588536 1428.00821284 -305.26416016 1429.93823242 C-310.36383526 1434.67042858 -315.56057276 1439.21193209 -320.984375 1443.57421875 C-323.19642216 1445.35359865 -325.39206839 1447.14630553 -327.578125 1448.95703125 C-387.02565591 1498.05536632 -456.2440156 1534.1466576 -529 1559 C-530.02738281 1559.3515918 -531.05476563 1559.70318359 -532.11328125 1560.06542969 C-585.80731778 1578.25942067 -641.98250735 1588.34148832 -698.453125 1592.48046875 C-699.45843262 1592.5587793 -700.46374023 1592.63708984 -701.49951172 1592.71777344 C-703.33333508 1592.85790258 -705.16834377 1592.98375997 -707.00439453 1593.09082031 C-714.77267385 1593.68065985 -721.36580047 1596.51807613 -727 1602 C-733.64405543 1610.82655038 -734.29465407 1618.79839761 -734.25726891 1629.57766438 C-734.26077498 1630.85240233 -734.26428105 1632.12714029 -734.26789337 1633.44050667 C-734.27734523 1636.98308157 -734.27435273 1640.52555356 -734.26933783 1644.0681335 C-734.26607108 1647.92063583 -734.27435383 1651.77311617 -734.28115618 1655.62561148 C-734.29146598 1662.37913672 -734.29429828 1669.13263329 -734.29224396 1675.88616562 C-734.28919654 1685.92896562 -734.29751217 1695.97173384 -734.30799321 1706.01452766 C-734.32734682 1724.99363468 -734.33296193 1743.97273091 -734.33410732 1762.95184664 C-734.33502596 1777.60644117 -734.33914029 1792.26103146 -734.34550858 1806.91562462 C-734.34730363 1811.13198254 -734.34908325 1815.34834047 -734.35085833 1819.5646984 C-734.35130043 1820.61285725 -734.35174252 1821.6610161 -734.35219802 1822.74093735 C-734.36450834 1852.22818183 -734.37239894 1881.71542484 -734.37151146 1911.202672 C-734.3714803 1912.31466862 -734.37144914 1913.42666524 -734.37141704 1914.57235873 C-734.37125082 1920.20858838 -734.37105274 1925.84481802 -734.37084763 1931.48104767 C-734.37080774 1932.60044994 -734.37076785 1933.71985222 -734.37072675 1934.87317578 C-734.37064587 1937.13688007 -734.37056228 1939.40058437 -734.37047596 1941.66428866 C-734.36925024 1976.88989709 -734.38426672 2012.11546704 -734.41162109 2047.34106445 C-734.44233116 2086.90438888 -734.45955426 2126.46768801 -734.45769465 2166.03102511 C-734.45754538 2170.2483261 -734.45744797 2174.46562709 -734.45738602 2178.68292809 C-734.45735105 2180.24057223 -734.45735105 2180.24057223 -734.45731538 2181.82968393 C-734.4572538 2198.55224724 -734.47003414 2215.27477717 -734.48725055 2231.99733056 C-734.50419052 2248.79865594 -734.50619368 2265.59993241 -734.4930319 2282.40126161 C-734.48563198 2292.38617289 -734.4893318 2302.37093573 -734.50891658 2312.35583134 C-734.5208922 2319.02400948 -734.51835251 2325.6920798 -734.50397559 2332.36025294 C-734.49619212 2336.16056832 -734.49471933 2339.9605959 -734.51089029 2343.7608913 C-734.52816221 2347.85575811 -734.51447172 2351.94994321 -734.49777794 2356.0448122 C-734.5077143 2357.22300891 -734.51765066 2358.40120561 -734.52788812 2359.61510524 C-734.44007773 2369.7680326 -731.95169852 2377.83770803 -724.93359375 2385.30859375 C-718.60051025 2390.84844255 -711.92450048 2392.12516838 -703.71927905 2392.1241985 C-702.60955437 2392.12611563 -702.60955437 2392.12611563 -701.47741101 2392.12807148 C-698.97979607 2392.13115233 -696.48224349 2392.12706085 -693.98463058 2392.12304783 C-692.17562558 2392.12378705 -690.3666207 2392.12496519 -688.55761623 2392.12654433 C-683.55348829 2392.1296263 -678.54938052 2392.12642752 -673.54525408 2392.12226619 C-668.11374795 2392.11884317 -662.68224395 2392.12120065 -657.25073743 2392.12284368 C-647.72048671 2392.12492158 -638.19024222 2392.12326658 -628.65999222 2392.11920547 C-614.4887408 2392.11318344 -600.31749332 2392.11286846 -586.14624086 2392.11374746 C-562.31075718 2392.11506305 -538.47527627 2392.11172084 -514.6397934 2392.10573006 C-491.03050473 2392.09981029 -467.4212172 2392.09595551 -443.8119278 2392.09487724 C-443.07907575 2392.09484283 -442.34622371 2392.09480842 -441.59116403 2392.09477296 C-434.89782077 2392.09445977 -428.20447751 2392.09417208 -421.51113425 2392.09391499 C-404.8712394 2392.09327554 -388.23134457 2392.09231619 -371.59144974 2392.09113979 C-370.83365373 2392.09108648 -370.07585772 2392.09103316 -369.2950982 2392.09097823 C-332.42069004 2392.08835586 -295.54628263 2392.08204795 -258.671875 2392.07543945 C-245.87349447 2392.07314782 -233.07511394 2392.07087247 -220.2767334 2392.06866455 C-219.08611979 2392.06845913 -219.08611979 2392.06845913 -217.87145339 2392.06824955 C-180.98156324 2392.06190704 -144.09167297 2392.05818039 -107.20178242 2392.05512976 C-104.8072553 2392.05493169 -102.41272819 2392.0547325 -100.01820108 2392.05453308 C-84.14972244 2392.05321331 -68.2812438 2392.05193866 -52.41276516 2392.05069422 C-20.83765573 2392.04821763 10.73745367 2392.04547594 42.31256306 2392.04255217 C43.8162974 2392.04241293 45.32003173 2392.04227388 46.82376607 2392.04213501 C129.14170489 2392.03453115 211.45964291 2392.02222102 347 2392 C346.06160534 2390.89545223 345.12179087 2389.79211061 344.18139827 2388.68926334 C343.39659385 2387.76743011 343.39659385 2387.76743011 342.5959348 2386.82697397 C340.18349947 2384.06529689 337.61488001 2381.47679183 335.0173645 2378.89038086 C334.44618515 2378.31764152 333.8750058 2377.74490217 333.28651798 2377.15480709 C331.39144878 2375.25578177 329.49286453 2373.36031225 327.59423828 2371.46484375 C326.2268337 2370.09608273 324.85964165 2368.72710937 323.49264526 2367.35794067 C319.79243594 2363.65318558 316.08908604 2359.95158504 312.38501596 2356.25069046 C308.50085333 2352.36906671 304.61913928 2348.48499554 300.73703003 2344.60131836 C294.21727218 2338.07974306 287.69541308 2331.56027468 281.17236328 2325.04199219 C273.64287747 2317.51794589 266.11699771 2309.99030711 258.59298527 2302.46078777 C252.12160223 2295.98485879 245.64826246 2289.51089061 239.17329967 2283.03854084 C235.31112447 2279.17792056 231.4496183 2275.31663761 227.58987808 2271.45358276 C223.95928238 2267.82008691 220.32622709 2264.18906803 216.69130325 2260.55990219 C215.36181775 2259.23173291 214.03317126 2257.90272313 212.70545197 2256.57278824 C210.8848175 2254.74939723 209.06109177 2252.9291522 207.23660278 2251.10961914 C206.71926547 2250.59005111 206.20192816 2250.07048307 205.66891396 2249.53517056 C202.90220535 2246.78289448 200.06488051 2244.16225854 197.11067772 2241.61151886 C192.88825891 2237.95057738 188.93280567 2234.06660022 184.99255371 2230.1060791 C184.22773855 2229.3414128 183.46292338 2228.57674649 182.674932 2227.78890848 C180.1318174 2225.24510353 177.59228772 2222.6977505 175.05273438 2220.15039062 C173.22241631 2218.31815193 171.39186935 2216.48614186 169.56111145 2214.65434265 C165.62818057 2210.71853516 161.69702752 2206.78095933 157.76704407 2202.84220886 C152.07685777 2197.13942316 146.38339444 2191.43991796 140.68905157 2185.741283 C131.437913 2176.48308853 122.18864496 2167.22302792 112.94091797 2157.96142578 C112.3882955 2157.4079755 111.83567304 2156.85452522 111.26630443 2156.28430372 C106.78296132 2151.79421659 102.29970907 2147.30403872 97.81646061 2142.81385708 C93.89737691 2138.88872037 89.97825691 2134.9636199 86.05908203 2131.03857422 C85.50713887 2130.48580293 84.95519571 2129.93303165 84.386527 2129.36350971 C75.17163928 2120.13491901 65.95477486 2110.90830494 56.73650789 2101.68308973 C51.05893197 2096.00104329 45.38313628 2090.31722972 39.70965636 2084.63109338 C35.36031538 2080.27230266 31.00841459 2075.91607611 26.65558434 2071.56077003 C24.87456111 2069.77787791 23.09440101 2067.99412307 21.31517982 2066.2094326 C18.88158886 2063.76859806 16.4448985 2061.33089869 14.00744629 2058.8939209 C13.30859865 2058.1914783 12.60975101 2057.48903569 11.88972616 2056.76530695 C8.05307367 2052.93661488 4.10436991 2049.31673871 0.00297558 2045.77465391 C-3.52767648 2042.64646526 -6.84300355 2039.30502565 -10.17707825 2035.97009277 C-10.96019448 2035.19065323 -11.7433107 2034.41121369 -12.55015773 2033.60815477 C-15.15534861 2031.01391548 -17.75701092 2028.41616766 -20.35864258 2025.81835938 C-22.23339377 2023.94987922 -24.10832618 2022.08158233 -25.98344421 2020.21347046 C-31.59426483 2014.62231519 -37.20032849 2009.02640221 -42.80577877 2003.42986369 C-44.92186146 2001.31729565 -47.03825945 1999.20504363 -49.15467403 1997.0928081 C-58.50142296 1987.76451402 -67.84681853 1978.43486657 -77.18819141 1969.10118866 C-79.46895723 1966.82233234 -81.74972849 1964.54348147 -84.03051758 1962.26464844 C-84.59730619 1961.69834357 -85.1640948 1961.1320387 -85.74805882 1960.54857308 C-94.92219652 1951.3827292 -104.10482058 1942.22543704 -113.29104165 1933.07170504 C-122.74691993 1923.64899445 -132.19515932 1914.21867808 -141.63606185 1904.78096247 C-146.92702097 1899.49215901 -152.22115953 1894.20663043 -157.52387428 1888.92961121 C-162.04090988 1884.43441544 -166.55089261 1879.93228547 -171.05219034 1875.42132837 C-173.34324188 1873.12577081 -175.63833491 1870.83454683 -177.94032669 1868.54995346 C-211.54251814 1835.18739843 -230.28504502 1795.88915412 -231.00683594 1747.99755859 C-230.9236394 1711.51587693 -218.12700882 1676.11100559 -195 1648 C-194.55140625 1647.45359863 -194.1028125 1646.90719727 -193.640625 1646.34423828 C-188.63733977 1640.32937016 -188.63733977 1640.32937016 -186 1638 C-182.22472724 1638 -181.28580322 1639.35791675 -178.69791251 1641.91950566 C-178.1245748 1642.50226401 -177.55123709 1643.08502236 -176.96052551 1643.68544006 C-176.34699036 1644.29711751 -175.7334552 1644.90879496 -175.10132807 1645.53900808 C-173.0353668 1647.60235774 -170.98034673 1649.67627644 -168.92504883 1651.75024414 C-167.45057203 1653.2272029 -165.97542783 1654.70349563 -164.49966431 1656.1791687 C-161.31626699 1659.36527766 -158.13770081 1662.55610414 -154.96274757 1665.75062752 C-149.93950513 1670.80482698 -144.90597217 1675.84869211 -139.87101746 1680.89122009 C-131.90271238 1688.87403685 -123.94165486 1696.86403853 -115.9835059 1704.85697883 C-101.74953336 1719.15273103 -87.50354476 1733.43650388 -73.25467318 1747.71740431 C-68.25537364 1752.7285147 -63.25927464 1757.74278826 -58.26584494 1762.75974762 C-55.1509303 1765.88853808 -52.03398873 1769.01530379 -48.91659927 1772.14162827 C-47.47580689 1773.58746938 -46.0358966 1775.03419014 -44.59695625 1776.48187447 C-42.62511702 1778.46549734 -40.65012408 1780.44592927 -38.6743927 1782.42567444 C-38.1122086 1782.99281774 -37.5500245 1783.55996104 -36.97080451 1784.14429051 C-34.09695492 1787.01739006 -31.1594721 1789.76128108 -28.08331585 1792.41752529 C-23.86838901 1796.06717037 -19.92358524 1799.94266765 -15.99255371 1803.8939209 C-15.22773855 1804.6585872 -14.46292338 1805.42325351 -13.674932 1806.21109152 C-11.1318174 1808.75489647 -8.59228772 1811.3022495 -6.05273438 1813.84960938 C-4.22241631 1815.68184807 -2.39186935 1817.51385814 -0.56111145 1819.34565735 C3.37181943 1823.28146484 7.30297248 1827.21904067 11.23295593 1831.15779114 C16.92314223 1836.86057684 22.61660556 1842.56008204 28.31094843 1848.258717 C37.562087 1857.51691147 46.81135504 1866.77697208 56.05908203 1876.03857422 C56.6117045 1876.5920245 57.16432696 1877.14547478 57.73369557 1877.71569628 C62.21703868 1882.20578341 66.70029093 1886.69596128 71.18353939 1891.18614292 C75.10262309 1895.11127963 79.02174309 1899.0363801 82.94091797 1902.96142578 C83.49286113 1903.51419707 84.04480429 1904.06696835 84.613473 1904.63649029 C93.82836072 1913.86508099 103.04522514 1923.09169506 112.26349211 1932.31691027 C117.94106803 1937.99895671 123.61686372 1943.68277028 129.29034364 1949.36890662 C133.63968462 1953.72769734 137.99158541 1958.08392389 142.34441566 1962.43922997 C144.12543889 1964.22212209 145.90559899 1966.00587693 147.68482018 1967.7905674 C150.11841114 1970.23140194 152.5551015 1972.66910131 154.99255371 1975.1060791 C155.69140135 1975.8085217 156.39024899 1976.51096431 157.11027384 1977.23469305 C160.31862734 1980.43638974 163.56660431 1983.53472216 166.99762726 1986.49762726 C171.20214506 1990.1288084 175.12841872 1993.99485539 179.04541016 1997.93188477 C179.81430887 1998.70063462 180.58320759 1999.46938448 181.37540627 2000.26142979 C183.93234034 2002.81905426 186.4856895 2005.38022701 189.0390625 2007.94140625 C190.87923267 2009.78349703 192.71963171 2011.62535919 194.5602417 2013.4670105 C198.51445344 2017.42409895 202.46688736 2021.38295579 206.41815186 2025.34298706 C212.13910747 2031.07654164 217.86333973 2036.80681611 223.58845162 2042.53622019 C232.88950443 2051.84432901 242.18868673 2061.15430397 251.48632812 2070.46582031 C252.04194121 2071.02226121 252.59755429 2071.5787021 253.17000413 2072.15200484 C257.67761581 2076.66636055 262.18513662 2081.18080698 266.69265366 2085.69525719 C270.63295058 2089.64160711 274.57328379 2093.58792079 278.51367188 2097.53417969 C279.06860203 2098.08993797 279.62353219 2098.64569625 280.19527841 2099.21829569 C289.45988678 2108.49660684 298.72647169 2117.77294152 307.99445915 2127.04787731 C313.70274447 2132.76063326 319.40924951 2138.47515645 325.11343908 2144.19200206 C329.48628127 2148.57429365 333.86168298 2152.95402139 338.23801422 2157.33282852 C340.02871275 2159.12539603 341.81854812 2160.91882628 343.60744476 2162.71319199 C346.05417315 2165.16716341 348.50400048 2167.61800031 350.95458984 2170.06811523 C351.65732843 2170.77444879 352.36006702 2171.48078234 353.08410072 2172.20851994 C356.93312451 2176.04959941 360.89390376 2179.68157656 365.00867939 2183.2349453 C368.48136751 2186.31304556 371.73558212 2189.60522585 375.00744629 2192.8939209 C375.77226145 2193.6585872 376.53707662 2194.42325351 377.325068 2195.21109152 C379.8681826 2197.75489647 382.40771228 2200.3022495 384.94726562 2202.84960938 C386.77758369 2204.68184807 388.60813065 2206.51385814 390.43888855 2208.34565735 C394.37181943 2212.28146484 398.30297248 2216.21904067 402.23295593 2220.15779114 C407.92314223 2225.86057684 413.61660556 2231.56008204 419.31094843 2237.258717 C428.562087 2246.51691147 437.81135504 2255.77697208 447.05908203 2265.03857422 C447.6117045 2265.5920245 448.16432696 2266.14547478 448.73369557 2266.71569628 C453.21703868 2271.20578341 457.70029093 2275.69596128 462.18353939 2280.18614292 C466.10262309 2284.11127963 470.02174309 2288.0363801 473.94091797 2291.96142578 C474.49286113 2292.51419707 475.04480429 2293.06696835 475.613473 2293.63649029 C484.82836072 2302.86508099 494.04522514 2312.09169506 503.26349211 2321.31691027 C508.94106803 2326.99895671 514.61686372 2332.68277028 520.29034364 2338.36890662 C524.63968462 2342.72769734 528.99158541 2347.08392389 533.34441566 2351.43922997 C535.12543889 2353.22212209 536.90559899 2355.00587693 538.68482018 2356.7905674 C541.11841114 2359.23140194 543.5551015 2361.66910131 545.99255371 2364.1060791 C546.69140135 2364.8085217 547.39024899 2365.51096431 548.11027384 2366.23469305 C551.84426925 2369.96094103 555.65354477 2373.49059196 559.7111721 2376.86183119 C561.58070668 2378.60830611 563.11469819 2380.30439582 564.72677803 2382.27286959 C569.57104614 2388.00159932 573.72012219 2392.51202507 581.43674383 2393.46847439 C585.63128931 2393.71934379 589.79399436 2393.67221784 593.99304199 2393.58349609 C595.89813716 2393.59132509 597.80321587 2393.60486101 599.70823526 2393.62356949 C604.91518711 2393.65829874 610.11872301 2393.61244621 615.32533312 2393.55283022 C620.9503824 2393.50269382 626.57516768 2393.52796773 632.2003479 2393.54379272 C643.20647124 2393.56303062 654.21125879 2393.51350782 665.21711904 2393.4411782 C678.0322731 2393.3598635 690.84718789 2393.34971463 703.66256219 2393.34317875 C726.52180896 2393.32937091 749.38031449 2393.25547137 772.23925781 2393.14550781 C794.42742745 2393.03882852 816.61529811 2392.96802151 838.80371094 2392.94042969 C839.4878515 2392.93956904 840.17199206 2392.93870839 840.87686416 2392.93782166 C846.38084231 2392.93090946 851.88482061 2392.9240978 857.38879913 2392.91748138 C880.4915223 2392.88956988 903.5941789 2392.83253928 926.69683266 2392.77014923 C931.8091391 2392.75642514 936.92144641 2392.74386564 942.03375816 2392.73229218 C955.46401611 2392.70144871 968.89413881 2392.66159954 982.32426864 2392.5941757 C987.8782677 2392.56636982 993.43217925 2392.54310227 998.98624039 2392.5325737 C1004.06613663 2392.52270607 1009.14576895 2392.49898304 1014.22555214 2392.46393132 C1016.06707593 2392.45360273 1017.90863602 2392.44831738 1019.75018877 2392.44847369 C1022.24612618 2392.44788187 1024.74127292 2392.42903943 1027.23708344 2392.40545654 C1027.95823125 2392.40962157 1028.67937907 2392.41378659 1029.42237985 2392.41807783 C1033.78048852 2392.35229052 1036.51270559 2391.63601156 1040 2389 C1041.86340936 2386.54368766 1042.02459332 2385.35814029 1041.8125 2382.26953125 C1040.84077459 2378.35927084 1039.01391519 2375.65752269 1036.625 2372.5 C1036.17946777 2371.89542969 1035.73393555 2371.29085937 1035.27490234 2370.66796875 C1033.8645334 2368.76714364 1032.43573954 2366.88171858 1031 2365 C1030.55269531 2364.41089844 1030.10539062 2363.82179688 1029.64453125 2363.21484375 C1013.25467882 2341.73019849 994.89586344 2320.33682366 974.20703125 2302.87109375 C972.40782581 2301.34574967 970.64402702 2299.7954237 968.88671875 2298.22265625 C958.71921433 2289.17738363 947.98877812 2281.01758243 937 2273 C935.92129639 2272.20529297 935.92129639 2272.20529297 934.82080078 2271.39453125 C917.20613625 2258.44465267 898.31939685 2247.211627 879 2237 C878.08009277 2236.51208984 877.16018555 2236.02417969 876.21240234 2235.52148438 C807.63814116 2199.45458952 726.81211593 2177.99117219 649.06428528 2179.08409119 C645.56958257 2179.12375165 642.07542079 2179.11956824 638.58053589 2179.11264038 C636.84294999 2179.12076585 635.10532075 2179.14901154 633.36843872 2179.1991272 C617.97856306 2179.63713166 617.97856306 2179.63713166 611.61891174 2174.15719604 C609.27740081 2171.87592499 607.14594434 2169.46705767 605 2167 C603.66958928 2165.8063142 602.32096247 2164.63177298 600.9375 2163.5 C596.70317787 2159.83788357 592.8144512 2155.84612473 588.90625 2151.84375 C586.78533289 2149.71715025 584.57219066 2147.74481574 582.29272461 2145.78953552 C578.16461965 2142.19064026 574.27092937 2138.40561076 570.41015625 2134.52368164 C569.69026016 2133.80393441 568.97036407 2133.08418718 568.22865295 2132.34262943 C565.83755246 2129.9508392 563.45003702 2127.55550321 561.0625 2125.16015625 C559.34055506 2123.43629046 557.61838105 2121.71265345 555.89599609 2119.98922729 C552.19729377 2116.28737166 548.50009086 2112.58402554 544.80419922 2108.87936401 C539.4524755 2103.51503576 534.09747032 2098.15399265 528.74158669 2092.79381812 C520.03950471 2084.08468149 511.33929349 2075.37367877 502.640625 2066.66113281 C502.1208993 2066.1405793 501.60117359 2065.62002578 501.06569862 2065.08369792 C496.84930971 2060.86056506 492.63301173 2056.63734142 488.41671753 2052.414114 C484.73097921 2048.72232261 481.04520456 2045.03056749 477.359375 2041.33886719 C476.84028879 2040.81895285 476.32120258 2040.29903852 475.78638649 2039.7633692 C467.11842606 2031.0817033 458.44848699 2022.40201594 449.77714539 2013.72372723 C444.43737265 2008.37948542 439.09937979 2003.03347769 433.76370621 1997.68514323 C429.67287887 1993.58486204 425.57948759 1989.48714833 421.48516846 1985.39035416 C419.81057353 1983.7138912 418.1368413 1982.03656599 416.46405029 1980.35830307 C414.17497125 1978.06197395 411.88278729 1975.76878777 409.58984375 1973.47631836 C408.93379654 1972.81667619 408.27774933 1972.15703402 407.6018219 1971.47740269 C404.49568755 1968.37810875 401.34255883 1965.389973 398.02135468 1962.52135468 C393.85219612 1958.91754758 389.95384515 1955.08758241 386.06848145 1951.18200684 C385.31183339 1950.42550764 384.55518533 1949.66900844 383.77560854 1948.88958502 C381.26013287 1946.37341911 378.74824215 1943.85370552 376.23632812 1941.33398438 C374.42571426 1939.52144985 372.61487148 1937.70914397 370.80381775 1935.89704895 C366.91358717 1932.00366417 363.0248576 1928.1087899 359.13743591 1924.21260071 C353.50878824 1918.57135275 347.87686277 1912.93338609 342.24405795 1907.29628938 C333.09274786 1898.13792361 323.94330834 1888.9776917 314.79541016 1879.81591797 C314.24876892 1879.26844892 313.70212768 1878.72097987 313.13892156 1878.15692085 C308.70411557 1873.71537085 304.26940047 1869.27373012 299.83468914 1864.83208561 C295.95803187 1860.94937532 292.0813383 1857.06670128 288.20458984 1853.18408203 C287.65862068 1852.63728474 287.11265151 1852.09048744 286.55013782 1851.52712053 C277.43469141 1842.39797071 268.31726797 1833.27079785 259.19844198 1824.14502382 C253.58228483 1818.5243964 247.96790785 1812.90200206 242.35584724 1807.27728426 C238.05350863 1802.9654952 233.74861002 1798.65627141 229.44278145 1794.34796715 C227.68110883 1792.58442578 225.92029925 1790.82002177 224.160429 1789.05468178 C221.75311291 1786.64012098 219.34269646 1784.2286967 216.93151855 1781.81799316 C216.24045281 1781.12333246 215.54938706 1780.42867175 214.83737993 1779.71296072 C211.64725176 1776.52952189 208.41613127 1773.45090461 205.00474548 1770.50474548 C200.81317659 1766.88417459 196.89769693 1763.03131087 192.99255371 1759.1060791 C192.22773855 1758.3414128 191.46292338 1757.57674649 190.674932 1756.78890848 C188.1318174 1754.24510353 185.59228772 1751.6977505 183.05273438 1749.15039062 C181.22241631 1747.31815193 179.39186935 1745.48614186 177.56111145 1743.65434265 C173.62818057 1739.71853516 169.69702752 1735.78095933 165.76704407 1731.84220886 C160.07685777 1726.13942316 154.38339444 1720.43991796 148.68905157 1714.741283 C139.437913 1705.48308853 130.18864496 1696.22302792 120.94091797 1686.96142578 C120.11198427 1686.13125036 120.11198427 1686.13125036 119.26630443 1685.28430372 C114.78296132 1680.79421659 110.29970907 1676.30403872 105.81646061 1671.81385708 C101.89737691 1667.88872037 97.97825691 1663.9636199 94.05908203 1660.03857422 C93.50713887 1659.48580293 92.95519571 1658.93303165 92.386527 1658.36350971 C83.17163928 1649.13491901 73.95477486 1639.90830494 64.73650789 1630.68308973 C59.05893197 1625.00104329 53.38313628 1619.31722972 47.70965636 1613.63109338 C43.36031538 1609.27230266 39.00841459 1604.91607611 34.65558434 1600.56077003 C32.87456111 1598.77787791 31.09440101 1596.99412307 29.31517982 1595.2094326 C26.88158886 1592.76859806 24.4448985 1590.33089869 22.00744629 1587.8939209 C21.30859865 1587.1914783 20.60975101 1586.48903569 19.88972616 1585.76530695 C16.04916166 1581.93271099 12.09592497 1578.30977912 7.99034452 1574.76407862 C4.53125225 1571.69822211 1.28943658 1568.41982013 -1.96948242 1565.14404297 C-2.73021403 1564.38346022 -3.49094564 1563.62287746 -4.27472973 1562.83924675 C-6.80402486 1560.30926132 -9.32973506 1557.77572801 -11.85546875 1555.2421875 C-13.67593471 1553.41980089 -15.49662958 1551.59764292 -17.3175354 1549.7756958 C-21.22918541 1545.86116927 -25.13905761 1541.94487445 -29.04776001 1538.02740479 C-34.707177 1532.35538795 -40.3698714 1526.68665202 -46.03344524 1521.01878619 C-55.23466957 1511.81050607 -64.43402334 1502.60035981 -73.63183594 1493.38867188 C-74.18146779 1492.83821221 -74.73109964 1492.28775255 -75.297387 1491.72061229 C-79.75646155 1487.25479372 -84.21544523 1482.78888442 -88.67442513 1478.32297134 C-92.57229561 1474.41904784 -96.4702024 1470.51516059 -100.36816406 1466.61132812 C-100.91712023 1466.06154383 -101.46607639 1465.51175954 -102.03166759 1464.94531512 C-111.19683465 1455.76644486 -120.36397858 1446.58955139 -129.53252506 1437.41405678 C-135.1793916 1431.76271984 -140.82447794 1426.10961589 -146.4672482 1420.45418882 C-150.79308796 1416.11889896 -155.12148785 1411.7861736 -159.45081711 1407.45436859 C-161.22216503 1405.68115184 -162.99264987 1403.90707242 -164.76219559 1402.13205719 C-167.18264912 1399.70435952 -169.60620252 1397.2797977 -172.03051758 1394.85595703 C-172.72547427 1394.15740538 -173.42043097 1393.45885372 -174.13644695 1392.73913383 C-178.0618515 1388.82191691 -182.0934446 1385.08907408 -186.29971129 1381.47444338 C-188.3831826 1379.66771464 -190.34711116 1377.76652002 -192.28881836 1375.80883789 C-193.39422218 1374.69847923 -193.39422218 1374.69847923 -194.5219574 1373.56568909 C-195.66931114 1372.40588783 -195.66931114 1372.40588783 -196.83984375 1371.22265625 C-197.64740616 1370.41130722 -198.45496857 1369.59995819 -199.28700256 1368.76402283 C-201.83962705 1366.19927883 -204.38895454 1363.63129689 -206.9375 1361.0625 C-210.31878895 1357.65472823 -213.70330354 1354.25020857 -217.08984375 1350.84765625 C-217.86891586 1350.0602858 -218.64798798 1349.27291534 -219.45066833 1348.46168518 C-220.16553909 1347.7435112 -220.88040985 1347.02533722 -221.61694336 1346.28540039 C-222.24789413 1345.6492128 -222.87884491 1345.01302521 -223.52891541 1344.3575592 C-224.78885515 1342.88696973 -224.78885515 1342.88696973 -226 1343 Z " fill="#DFAD70" transform="translate(1568,491)"/>
<path d="M0 0 C5.6780403 3.37797379 11.43502906 6.57979314 17.25 9.71484375 C27.6749465 15.34850805 37.9932762 21.15825711 48.29638672 27.01123047 C53.08944957 29.73196755 57.8887722 32.44161513 62.6875 35.15234375 C64.60419698 36.23562345 66.52086364 37.31895679 68.4375 38.40234375 C69.860625 39.20671875 69.860625 39.20671875 71.3125 40.02734375 C79.9375 44.90234375 79.9375 44.90234375 82.81201172 46.52709961 C84.73026962 47.61131109 86.64856394 48.69545814 88.56689453 49.77954102 C93.33451478 52.47391368 98.10151377 55.16937323 102.8671875 57.8671875 C112.83504259 63.50822343 122.81470252 69.12702735 132.8125 74.71484375 C141.31654202 79.46840863 149.79149747 84.26894798 158.24145508 89.11791992 C164.96675624 92.97102989 171.72961722 96.75413266 178.5 100.52734375 C186.84942293 105.18225785 195.13436866 109.93258799 203.375 114.77734375 C211.79785793 119.72793824 220.30331604 124.48149585 228.90356445 129.1159668 C235.70858813 132.80062628 242.39599466 136.66087575 249.0625 140.58984375 C258.07075073 145.89550441 267.18404968 150.95545583 276.39575195 155.89819336 C285.5347648 160.8109263 294.53299104 165.94996039 303.52490234 171.12548828 C308.19193094 173.80177627 312.87735815 176.44543283 317.5625 179.08984375 C318.52051514 179.63068604 319.47853027 180.17152832 320.46557617 180.72875977 C322.40667818 181.82448799 324.34784039 182.92010957 326.2890625 184.015625 C329.15205586 185.6323288 332.01375499 187.25129802 334.875 188.87109375 C344.83998787 194.51129744 354.81723921 200.12844512 364.8125 205.71484375 C373.31424853 210.46712662 381.7863161 215.26739209 390.23486328 220.11352539 C397.0278325 224.00413771 403.85308786 227.83507453 410.6875 231.65234375 C419.23369592 236.42570684 427.75076928 241.24549245 436.2409668 246.11767578 C442.96646549 249.97080621 449.72945829 253.75404408 456.5 257.52734375 C464.84942824 262.18226081 473.1342458 266.93279132 481.375 271.77734375 C489.82478794 276.74121609 498.35126312 281.52577959 506.97167969 286.1862793 C516.48540491 291.33457252 525.891022 296.668247 535.29638672 302.01123047 C540.08944946 304.73196749 544.88874962 307.44165529 549.6875 310.15234375 C555.41505389 313.38887552 561.1421166 316.62626527 566.8671875 319.8671875 C576.83504259 325.50822343 586.81470252 331.12702735 596.8125 336.71484375 C605.31424853 341.46712662 613.7863161 346.26739209 622.23486328 351.11352539 C629.0278325 355.00413771 635.85308786 358.83507453 642.6875 362.65234375 C651.23369592 367.42570684 659.75076928 372.24549245 668.2409668 377.11767578 C674.96646549 380.97080621 681.72945829 384.75404408 688.5 388.52734375 C697.85439393 393.74254252 707.12102005 399.09121972 716.34741211 404.52929688 C722.22907544 407.97943187 728.16679141 411.28522294 734.18432617 414.4921875 C749.83801393 422.84152914 762.19995374 431.34344636 769.1796875 448.3046875 C772.71160661 460.03668237 772.47222924 471.63963246 772.44819641 483.77400208 C772.45121911 485.93491472 772.45510918 488.09582629 772.45978898 490.25673598 C772.47006243 496.17929771 772.46788879 502.10179886 772.46360838 508.02436554 C772.46113999 514.41782605 772.47015675 520.81127201 772.47764587 527.20472717 C772.49039172 539.72426847 772.4921925 552.24378767 772.48984561 564.76333431 C772.48801121 574.94030047 772.48977565 585.11726033 772.49407005 595.29422569 C772.49467246 596.75761638 772.49527366 598.22100707 772.49587366 599.68439775 C772.49678093 601.88973314 772.4976896 604.09506853 772.49860601 606.30040391 C772.50703268 626.79819189 772.51137321 647.29597751 772.50719929 667.79376698 C772.50704291 668.56610652 772.50688654 669.33844606 772.50672542 670.13418983 C772.50591967 674.04849109 772.5050739 677.96279234 772.50421212 681.87709359 C772.50404103 682.65445147 772.50386994 683.43180936 772.50369367 684.23272354 C772.50334701 685.80472903 772.50299848 687.37673451 772.50264808 688.94874 C772.49729136 713.40700303 772.50522109 737.86523002 772.52368164 762.32348633 C772.54441026 789.81873225 772.55512272 817.31395583 772.55110615 844.80921 C772.55071082 847.74247817 772.55034927 850.67574634 772.55000877 853.60901451 C772.54987268 854.69233765 772.54987268 854.69233765 772.54973383 855.7975461 C772.54856921 866.68693257 772.55520585 877.57629644 772.56582069 888.46567726 C772.57788467 900.85411737 772.57914021 913.2424983 772.56703053 925.63094024 C772.56114135 931.949592 772.56004365 938.26814669 772.57203293 944.58679199 C772.58288962 950.37588752 772.57979068 956.16480489 772.56577124 961.95389207 C772.56312376 964.04330047 772.56549243 966.13272282 772.57350711 968.22211752 C772.64330469 987.78246227 771.03857968 1004.50723491 757.125 1019.52734375 C745.27133191 1030.71158982 731.77616192 1033.96157197 715.87184143 1033.91062927 C714.52253942 1033.91348708 713.17323904 1033.91722681 711.82394165 1033.92176777 C708.13104792 1033.93171468 704.43824957 1033.92938442 700.74534881 1033.92504084 C696.756857 1033.92255851 692.76838986 1033.93164071 688.77990723 1033.93942261 C681.87249384 1033.95145317 674.9651035 1033.95657478 668.05768013 1033.957304 C658.06096665 1033.95863119 648.06430901 1033.97375634 638.06761526 1033.99279917 C621.83471591 1034.02362491 605.60181515 1034.04779799 589.36889648 1034.06567383 C588.39785026 1034.06674651 587.42680404 1034.06781919 586.42633217 1034.06892437 C575.59220609 1034.08074495 564.75807945 1034.09095082 553.9239502 1034.09936523 C549.99479165 1034.10243923 546.06563312 1034.10552801 542.13647461 1034.10864258 C541.16691747 1034.10940792 540.19736033 1034.11017326 539.19842268 1034.11096179 C523.02649501 1034.12404749 506.85460781 1034.14869159 490.68271011 1034.18238598 C480.71235517 1034.20266284 470.74208682 1034.21296718 460.7717111 1034.21039677 C453.93957166 1034.20936096 447.10750065 1034.21901056 440.27538509 1034.2370358 C436.3350233 1034.24707006 432.39481296 1034.25222043 428.45444298 1034.24426842 C424.84400551 1034.23706894 421.23386252 1034.24371817 417.62346243 1034.26115382 C415.70582644 1034.26684978 413.78816396 1034.25785211 411.87054354 1034.2482509 C403.55003258 1034.30764102 396.89279707 1035.20544946 389.875 1039.83984375 C383.31073493 1046.70942347 382.60527223 1053.2553888 382.68527794 1062.50578213 C382.67957338 1063.69009295 382.67386882 1064.87440377 382.6679914 1066.09460279 C382.65619866 1069.37912739 382.66227567 1072.66305649 382.67589874 1075.94755594 C382.68629709 1079.52199742 382.67343572 1083.09636788 382.66352141 1086.67080027 C382.64933655 1092.93478072 382.64993742 1099.19862416 382.66021919 1105.46261024 C382.67542884 1114.77779662 382.66769936 1124.09286514 382.65518011 1133.4080505 C382.63472453 1149.0822215 382.63256461 1164.75634469 382.64051437 1180.43052483 C382.64827341 1195.96190804 382.64690763 1211.49324957 382.63368607 1227.02462959 C382.63245436 1228.47368864 382.63245436 1228.47368864 382.63119777 1229.9520216 C382.62696615 1234.85845821 382.62255038 1239.76489463 382.61804982 1244.671331 C382.58635448 1279.4365673 382.5716609 1314.2017912 382.56835938 1348.96704102 C382.5681537 1351.06952226 382.56794765 1353.17200351 382.56774123 1355.27448476 C382.56763968 1356.31618939 382.56753814 1357.35789403 382.56743352 1358.43116547 C382.56691872 1363.70097718 382.56639461 1368.97078888 382.56585693 1374.24060059 C382.5657522 1375.28549463 382.56564746 1376.33038867 382.56553955 1377.40694617 C382.56302179 1401.65940113 382.55537576 1425.9118535 382.54589844 1450.16430664 C382.54549661 1451.20278744 382.54509479 1452.24126823 382.54468079 1453.31121815 C382.53545865 1477.03029108 382.52386123 1500.7493613 382.50762367 1524.46843052 C382.50660299 1525.96475991 382.50660299 1525.96475991 382.50556168 1527.49131818 C382.49941919 1536.46623969 382.49318258 1545.44116113 382.48644479 1554.41608221 C382.46965788 1576.78641765 382.45873461 1599.15672986 382.4623619 1621.52707206 C382.46487091 1637.12192381 382.46096902 1652.71676154 382.45028017 1668.31160998 C382.44419413 1677.57071129 382.44379093 1686.82977339 382.45148034 1696.0888737 C382.4560885 1702.28214778 382.45344228 1708.47539197 382.44504741 1714.66866199 C382.44048741 1718.19191392 382.43900115 1721.71508863 382.44650607 1725.23833727 C382.50985751 1762.80494393 377.09550291 1792.81003518 350.1875 1820.65234375 C349.548125 1821.3175 348.90875 1821.98265625 348.25 1822.66796875 C335.99300909 1834.44617095 320.28767034 1841.80814104 304.1875 1846.65234375 C303.00542969 1847.01199219 301.82335938 1847.37164063 300.60546875 1847.7421875 C282.61021902 1852.20500943 261.80243691 1851.33247537 244.1875 1845.65234375 C243.5392627 1845.44335449 242.89102539 1845.23436523 242.22314453 1845.01904297 C226.04209503 1839.57643751 213.15148833 1830.63742019 201.1875 1818.65234375 C200.59517578 1818.06163086 200.00285156 1817.47091797 199.39257812 1816.86230469 C194.46926486 1811.94680621 194.46926486 1811.94680621 192.20678711 1809.63598633 C189.39233727 1806.77523927 186.52617539 1804.0476534 183.47629547 1801.43795013 C179.1998372 1797.71292039 175.17873908 1793.77767797 171.18005371 1789.75842285 C170.41523855 1788.99375655 169.65042338 1788.22909024 168.862432 1787.44125223 C166.3193174 1784.89744728 163.77978772 1782.35009425 161.24023438 1779.80273438 C159.40991631 1777.97049568 157.57936935 1776.13848561 155.74861145 1774.3066864 C151.81568057 1770.37087891 147.88452752 1766.43330308 143.95454407 1762.49455261 C138.26435777 1756.79176691 132.57089444 1751.09226171 126.87655157 1745.39362675 C117.625413 1736.13543228 108.37614496 1726.87537167 99.12841797 1717.61376953 C98.5757955 1717.06031925 98.02317304 1716.50686897 97.45380443 1715.93664747 C92.97046132 1711.44656034 88.48720907 1706.95638247 84.00396061 1702.46620083 C80.08487691 1698.54106412 76.16575691 1694.61596365 72.24658203 1690.69091797 C71.69463887 1690.13814668 71.14269571 1689.5853754 70.574027 1689.01585346 C61.35913928 1679.78726276 52.14227486 1670.56064869 42.92400789 1661.33543348 C37.24643197 1655.65338704 31.57063628 1649.96957347 25.89715636 1644.28343713 C21.54781538 1639.92464641 17.19591459 1635.56841986 12.84308434 1631.21311378 C11.06206111 1629.43022166 9.28190101 1627.64646682 7.50267982 1625.86177635 C5.06908886 1623.42094181 2.6323985 1620.98324244 0.19494629 1618.54626465 C-0.50390135 1617.84382205 -1.20274899 1617.14137944 -1.92277384 1616.4176507 C-5.13190848 1613.21517449 -8.38076086 1610.11610946 -11.8125 1607.15234375 C-16.00267841 1603.5335643 -19.91637221 1599.68207741 -23.81994629 1595.75842285 C-24.58476145 1594.99375655 -25.34957662 1594.22909024 -26.137568 1593.44125223 C-28.6806826 1590.89744728 -31.22021228 1588.35009425 -33.75976562 1585.80273438 C-35.59008369 1583.97049568 -37.42063065 1582.13848561 -39.25138855 1580.3066864 C-43.18431943 1576.37087891 -47.11547248 1572.43330308 -51.04545593 1568.49455261 C-56.73564223 1562.79176691 -62.42910556 1557.09226171 -68.12344843 1551.39362675 C-77.374587 1542.13543228 -86.62385504 1532.87537167 -95.87158203 1523.61376953 C-96.4242045 1523.06031925 -96.97682696 1522.50686897 -97.54619557 1521.93664747 C-102.02953868 1517.44656034 -106.51279093 1512.95638247 -110.99603939 1508.46620083 C-114.91512309 1504.54106412 -118.83424309 1500.61596365 -122.75341797 1496.69091797 C-123.30536113 1496.13814668 -123.85730429 1495.5853754 -124.425973 1495.01585346 C-133.64086072 1485.78726276 -142.85772514 1476.56064869 -152.07599211 1467.33543348 C-157.75356803 1461.65338704 -163.42936372 1455.96957347 -169.10284364 1450.28343713 C-173.45218462 1445.92464641 -177.80408541 1441.56841986 -182.15691566 1437.21311378 C-183.93793889 1435.43022166 -185.71809899 1433.64646682 -187.49732018 1431.86177635 C-189.93091114 1429.42094181 -192.3676015 1426.98324244 -194.80505371 1424.54626465 C-195.50390135 1423.84382205 -196.20274899 1423.14137944 -196.92277384 1422.4176507 C-200.13190848 1419.21517449 -203.38076086 1416.11610946 -206.8125 1413.15234375 C-211.00267841 1409.5335643 -214.91637221 1405.68207741 -218.81994629 1401.75842285 C-219.58476145 1400.99375655 -220.34957662 1400.22909024 -221.137568 1399.44125223 C-223.6806826 1396.89744728 -226.22021228 1394.35009425 -228.75976562 1391.80273438 C-230.59008369 1389.97049568 -232.42063065 1388.13848561 -234.25138855 1386.3066864 C-238.18431943 1382.37087891 -242.11547248 1378.43330308 -246.04545593 1374.49455261 C-251.73564223 1368.79176691 -257.42910556 1363.09226171 -263.12344843 1357.39362675 C-272.374587 1348.13543228 -281.62385504 1338.87537167 -290.87158203 1329.61376953 C-291.4242045 1329.06031925 -291.97682696 1328.50686897 -292.54619557 1327.93664747 C-297.02953868 1323.44656034 -301.51279093 1318.95638247 -305.99603939 1314.46620083 C-309.91512309 1310.54106412 -313.83424309 1306.61596365 -317.75341797 1302.69091797 C-318.30536113 1302.13814668 -318.85730429 1301.5853754 -319.425973 1301.01585346 C-328.64086072 1291.78726276 -337.85772514 1282.56064869 -347.07599211 1273.33543348 C-352.75356803 1267.65338704 -358.42936372 1261.96957347 -364.10284364 1256.28343713 C-368.45218462 1251.92464641 -372.80408541 1247.56841986 -377.15691566 1243.21311378 C-378.93793889 1241.43022166 -380.71809899 1239.64646682 -382.49732018 1237.86177635 C-384.93091114 1235.42094181 -387.3676015 1232.98324244 -389.80505371 1230.54626465 C-390.50390135 1229.84382205 -391.20274899 1229.14137944 -391.92277384 1228.4176507 C-395.77032917 1224.57807841 -399.7301196 1220.9460833 -403.8433634 1217.39398098 C-407.17159404 1214.45026931 -410.29636855 1211.30955732 -413.43357849 1208.16497803 C-414.15685257 1207.44396951 -414.88012664 1206.72296099 -415.62531811 1205.98010373 C-418.02788829 1203.58382102 -420.4269137 1201.18402218 -422.82592773 1198.78417969 C-424.55612657 1197.05697561 -426.28652949 1195.32997594 -428.01712036 1193.60316467 C-432.2174595 1189.41072335 -436.41542412 1185.21591414 -440.61209541 1181.019802 C-444.02644789 1177.60592632 -447.44159225 1174.19284482 -450.85728645 1170.78031158 C-460.5614601 1161.08493449 -470.26354488 1151.38747404 -479.96294557 1141.68732199 C-480.48475605 1141.16547155 -481.00656653 1140.64362112 -481.54418945 1140.10595703 C-482.06664346 1139.58346214 -482.58909747 1139.06096725 -483.12738342 1138.52263919 C-491.59110225 1130.05851406 -500.05979713 1121.59938725 -508.53076612 1113.14251873 C-517.24838601 1104.43929441 -525.96223913 1095.73231417 -534.67223316 1087.02145791 C-539.55438955 1082.13897068 -544.43804854 1077.25800941 -549.32577324 1072.38109589 C-553.92443507 1067.79254156 -558.51783981 1063.1987666 -563.10782242 1058.60153008 C-564.78742401 1056.92088682 -566.46871484 1055.24192968 -568.15186882 1053.56484413 C-576.49989565 1045.24495508 -584.60795745 1037.00035656 -591.8125 1027.65234375 C-592.82416571 1026.4082283 -593.83894957 1025.16662837 -594.859375 1023.9296875 C-615.42305079 998.62370024 -633.855184 971.07872812 -649.8125 942.65234375 C-650.33859863 941.71825684 -650.86469727 940.78416992 -651.40673828 939.82177734 C-691.25974639 868.65995926 -715.59237949 790.5923817 -725.54821777 709.79675293 C-725.719467 708.40722166 -725.89291286 707.01795864 -726.06896973 705.62902832 C-731.50055208 662.60075358 -731.85266642 615.61124393 -725.8125 572.65234375 C-725.56306641 570.76273926 -725.56306641 570.76273926 -725.30859375 568.83496094 C-720.93744784 536.17278736 -713.68737285 504.08062964 -703.8125 472.65234375 C-703.42868164 471.42 -703.04486328 470.18765625 -702.64941406 468.91796875 C-693.54452001 439.9278648 -681.98010881 412.02462842 -668.8125 384.65234375 C-668.35665527 383.70214355 -667.90081055 382.75194336 -667.43115234 381.77294922 C-648.29350201 342.11345722 -624.5152069 304.63717365 -597.8125 269.65234375 C-597.05839844 268.65332031 -596.30429688 267.65429688 -595.52734375 266.625 C-581.44963164 248.10651366 -566.33105024 230.37395172 -550.43847656 213.39160156 C-548.67078455 211.50075503 -546.90956971 209.60398814 -545.1484375 207.70703125 C-525.78684233 186.89647443 -525.78684233 186.89647443 -515.60546875 178.2265625 C-513.75820371 176.60467185 -512.03493286 174.9057417 -510.3125 173.15234375 C-506.649467 169.44025228 -502.76442652 166.05211727 -498.8125 162.65234375 C-497.65958877 161.64778633 -496.50729865 160.64251584 -495.35546875 159.63671875 C-455.7763293 125.11392268 -412.73967907 95.11448253 -366.8125 69.65234375 C-365.24483887 68.78222656 -365.24483887 68.78222656 -363.64550781 67.89453125 C-298.57701958 31.96831748 -228.10428517 6.96744511 0 0 Z M-146.16796875 154.12109375 C-147.41634521 154.44045898 -148.66472168 154.75982422 -149.95092773 155.08886719 C-151.30084953 155.44247853 -152.65053474 155.79699413 -154 156.15234375 C-154.69022247 156.33285278 -155.38044495 156.51336182 -156.09158325 156.69934082 C-210.23899643 170.89125659 -262.00482029 192.45634943 -309.8125 221.65234375 C-310.65312988 222.16361816 -311.49375977 222.67489258 -312.35986328 223.20166016 C-330.96531262 234.57350605 -348.65327518 247.21015876 -365.8125 260.65234375 C-366.74320313 261.379375 -367.67390625 262.10640625 -368.6328125 262.85546875 C-378.71843608 270.83316457 -388.44916082 279.19314668 -397.86328125 287.94921875 C-399.98078111 289.91430216 -402.15360314 291.79749211 -404.3515625 293.671875 C-409.86136218 298.47542387 -414.9831902 303.67367486 -420.13989258 308.84936523 C-421.871447 310.58627975 -423.60828359 312.31778264 -425.34570312 314.04882812 C-431.04897797 319.74832292 -436.60229983 325.49266493 -441.8125 331.65234375 C-442.8571995 332.84435807 -443.90407369 334.03447001 -444.953125 335.22265625 C-452.19913946 343.48753356 -459.13818553 351.92059837 -465.8125 360.65234375 C-466.37694824 361.38549805 -466.94139648 362.11865234 -467.52294922 362.87402344 C-518.76241031 429.55004348 -555.5906118 507.91519058 -566.8125 591.65234375 C-566.9046579 592.32162903 -566.9968158 592.99091431 -567.09176636 593.68048096 C-569.06573894 608.39954698 -569.17130217 623.07042322 -569.125 637.90234375 C-569.12284485 639.14245209 -569.1206897 640.38256042 -569.11846924 641.6602478 C-569.06593368 660.50578547 -568.57753043 678.98337923 -565.8125 697.65234375 C-565.71775391 698.31165894 -565.62300781 698.97097412 -565.52539062 699.65026855 C-559.13743952 744.09715218 -546.79719422 786.51644316 -528.8125 827.65234375 C-528.44415039 828.49571289 -528.07580078 829.33908203 -527.69628906 830.20800781 C-507.86810412 875.06806721 -478.65659025 916.75254993 -444.125 951.46484375 C-443.51962402 952.07489258 -442.91424805 952.68494141 -442.29052734 953.31347656 C-439.30971722 956.28378803 -436.28011421 959.14322765 -433.08322906 961.88040924 C-428.81356395 965.6013363 -424.79823668 969.53254024 -420.80505371 973.54626465 C-420.04023855 974.31093095 -419.27542338 975.07559726 -418.487432 975.86343527 C-415.9443174 978.40724022 -413.40478772 980.95459325 -410.86523438 983.50195312 C-409.03491631 985.33419182 -407.20436935 987.16620189 -405.37361145 988.9980011 C-401.44068057 992.93380859 -397.50952752 996.87138442 -393.57954407 1000.81013489 C-387.88935777 1006.51292059 -382.19589444 1012.21242579 -376.50155157 1017.91106075 C-367.250413 1027.16925522 -358.00114496 1036.42931583 -348.75341797 1045.69091797 C-348.2007955 1046.24436825 -347.64817304 1046.79781853 -347.07880443 1047.36804003 C-342.59546132 1051.85812716 -338.11220907 1056.34830503 -333.62896061 1060.83848667 C-329.70987691 1064.76362338 -325.79075691 1068.68872385 -321.87158203 1072.61376953 C-321.04366729 1073.44292646 -321.04366729 1073.44292646 -320.199027 1074.28883404 C-310.98413928 1083.51742474 -301.76727486 1092.74403881 -292.54900789 1101.96925402 C-286.87143197 1107.65130046 -281.19563628 1113.33511403 -275.52215636 1119.02125037 C-271.17281538 1123.38004109 -266.82091459 1127.73626764 -262.46808434 1132.09157372 C-260.68706111 1133.87446584 -258.90690101 1135.65822068 -257.12767982 1137.44291115 C-254.69408886 1139.88374569 -252.2573985 1142.32144506 -249.81994629 1144.75842285 C-249.12109865 1145.46086545 -248.42225101 1146.16330806 -247.70222616 1146.8870368 C-244.49309152 1150.08951301 -241.24423914 1153.18857804 -237.8125 1156.15234375 C-233.62232159 1159.7711232 -229.70862779 1163.62261009 -225.80505371 1167.54626465 C-224.65783097 1168.69326411 -224.65783097 1168.69326411 -223.487432 1169.86343527 C-220.9443174 1172.40724022 -218.40478772 1174.95459325 -215.86523438 1177.50195312 C-214.03491631 1179.33419182 -212.20436935 1181.16620189 -210.37361145 1182.9980011 C-206.44068057 1186.93380859 -202.50952752 1190.87138442 -198.57954407 1194.81013489 C-192.88935777 1200.51292059 -187.19589444 1206.21242579 -181.50155157 1211.91106075 C-172.250413 1221.16925522 -163.00114496 1230.42931583 -153.75341797 1239.69091797 C-153.2007955 1240.24436825 -152.64817304 1240.79781853 -152.07880443 1241.36804003 C-147.59546132 1245.85812716 -143.11220907 1250.34830503 -138.62896061 1254.83848667 C-134.70987691 1258.76362338 -130.79075691 1262.68872385 -126.87158203 1266.61376953 C-126.31963887 1267.16654082 -125.76769571 1267.7193121 -125.199027 1268.28883404 C-115.98413928 1277.51742474 -106.76727486 1286.74403881 -97.54900789 1295.96925402 C-91.87143197 1301.65130046 -86.19563628 1307.33511403 -80.52215636 1313.02125037 C-76.17281538 1317.38004109 -71.82091459 1321.73626764 -67.46808434 1326.09157372 C-65.68706111 1327.87446584 -63.90690101 1329.65822068 -62.12767982 1331.44291115 C-59.69408886 1333.88374569 -57.2573985 1336.32144506 -54.81994629 1338.75842285 C-54.12109865 1339.46086545 -53.42225101 1340.16330806 -52.70222616 1340.8870368 C-49.49309152 1344.08951301 -46.24423914 1347.18857804 -42.8125 1350.15234375 C-38.62232159 1353.7711232 -34.70862779 1357.62261009 -30.80505371 1361.54626465 C-30.04023855 1362.31093095 -29.27542338 1363.07559726 -28.487432 1363.86343527 C-25.9443174 1366.40724022 -23.40478772 1368.95459325 -20.86523438 1371.50195312 C-19.03491631 1373.33419182 -17.20436935 1375.16620189 -15.37361145 1376.9980011 C-11.44068057 1380.93380859 -7.50952752 1384.87138442 -3.57954407 1388.81013489 C2.11064223 1394.51292059 7.80410556 1400.21242579 13.49844843 1405.91106075 C22.749587 1415.16925522 31.99885504 1424.42931583 41.24658203 1433.69091797 C41.7992045 1434.24436825 42.35182696 1434.79781853 42.92119557 1435.36804003 C47.40453868 1439.85812716 51.88779093 1444.34830503 56.37103939 1448.83848667 C60.29012309 1452.76362338 64.20924309 1456.68872385 68.12841797 1460.61376953 C68.68036113 1461.16654082 69.23230429 1461.7193121 69.800973 1462.28883404 C79.01586072 1471.51742474 88.23272514 1480.74403881 97.45099211 1489.96925402 C103.12856803 1495.65130046 108.80436372 1501.33511403 114.47784364 1507.02125037 C118.82718462 1511.38004109 123.17908541 1515.73626764 127.53191566 1520.09157372 C129.31293889 1521.87446584 131.09309899 1523.65822068 132.87232018 1525.44291115 C135.30591114 1527.88374569 137.7426015 1530.32144506 140.18005371 1532.75842285 C140.87890135 1533.46086545 141.57774899 1534.16330806 142.29777384 1534.8870368 C146.19819947 1538.77936969 150.19931426 1542.49054177 154.3847385 1546.07542759 C157.40687883 1548.71896193 160.22132425 1551.56323498 163.04663086 1554.41381836 C163.68017487 1555.04882263 164.31371887 1555.6838269 164.96646118 1556.33807373 C166.32560435 1557.70098941 167.68359247 1559.06505777 169.04051018 1560.43018913 C171.18553505 1562.58807785 173.33375653 1564.74273886 175.48280334 1566.8966217 C180.0330317 1571.45821373 184.5792853 1576.02375436 189.125 1580.58984375 C194.41829587 1585.90672581 199.71320035 1591.22198523 205.01230049 1596.53308296 C207.13328509 1598.6605704 209.25124943 1600.79103416 211.36912537 1602.9216156 C212.65731407 1604.21343342 213.94564146 1605.50511296 215.23413086 1606.79663086 C215.82576523 1607.39343155 216.4173996 1607.99023224 217.02696228 1608.6051178 C218.39496341 1609.9732986 219.78842913 1611.31595066 221.1875 1612.65234375 C221.5175 1612.65234375 221.8475 1612.65234375 222.1875 1612.65234375 C222.23885199 1559.58138186 222.28661425 1506.51041781 222.31452942 1453.43943787 C222.31494359 1452.65404683 222.31535776 1451.8686558 222.31578448 1451.05946503 C222.32476308 1433.99105196 222.33307364 1416.92263862 222.34069599 1399.85422489 C222.34443802 1391.48395261 222.34832768 1383.11368039 222.35229492 1374.7434082 C222.3526872 1373.91046281 222.35307948 1373.07751742 222.35348364 1372.21933126 C222.36626907 1345.21821954 222.38880403 1318.21712664 222.41639166 1291.21602633 C222.44468863 1263.47029702 222.46315615 1235.72457813 222.46924497 1207.97883464 C222.47010944 1204.06048932 222.47108635 1200.14214403 222.47213173 1196.22379875 C222.472334 1195.45260759 222.47253627 1194.68141643 222.47274467 1193.88685584 C222.47629065 1181.46976687 222.49020709 1169.05271011 222.5079961 1156.63563427 C222.52565631 1144.15412043 222.53240431 1131.67263854 222.52800413 1119.19111264 C222.52592241 1112.42759408 222.52907381 1105.66417574 222.54511642 1098.90067291 C222.55969222 1092.71048696 222.5604673 1086.5204594 222.55019668 1080.33026623 C222.54892689 1078.08920254 222.55275194 1075.84812905 222.56214955 1073.6070847 C222.57417534 1070.56261817 222.56770755 1067.51872465 222.55664349 1064.47426701 C222.56452453 1063.60268537 222.57240557 1062.73110374 222.58052543 1061.83311054 C222.51987187 1054.45530031 221.10406972 1047.05292867 216.125 1041.33984375 C215.36509766 1040.41751953 215.36509766 1040.41751953 214.58984375 1039.4765625 C206.91441411 1033.64822812 198.65533923 1033.07634643 189.32382202 1033.16027832 C188.06066559 1033.15559933 186.79750917 1033.15092034 185.49607527 1033.14609957 C182.01490468 1033.13366771 178.53419982 1033.14582958 175.05306172 1033.16217446 C171.28873624 1033.17540702 167.52446345 1033.16536804 163.76013184 1033.1580658 C157.24287608 1033.14840497 150.72575426 1033.1528274 144.20850754 1033.16648865 C134.76837644 1033.18590349 125.32839495 1033.17938762 115.88825984 1033.16591483 C100.54740673 1033.14434988 85.206589 1033.13761551 69.86572266 1033.14306641 C68.94848406 1033.14338704 68.03124546 1033.14370767 67.08621176 1033.14403802 C59.64798051 1033.14674944 52.20974963 1033.15017936 44.77151871 1033.15364361 C38.27818055 1033.15663809 31.78484236 1033.15934675 25.29150391 1033.16162109 C24.37720896 1033.1619466 23.46291402 1033.16227212 22.52091317 1033.16260749 C7.24273023 1033.16756015 -8.03540371 1033.15682932 -23.31357133 1033.13504934 C-32.72210496 1033.12239205 -42.13043566 1033.12373266 -51.53895812 1033.14350021 C-57.99408794 1033.15616444 -64.44911539 1033.15459411 -70.90424521 1033.14212668 C-74.62074544 1033.13545372 -78.33694582 1033.13516422 -82.05341721 1033.15270805 C-116.5621344 1033.30615278 -116.5621344 1033.30615278 -132.1875 1024.90234375 C-133.1787085 1024.38583252 -133.1787085 1024.38583252 -134.18994141 1023.85888672 C-148.38429745 1016.22911675 -158.89442192 1004.0892988 -168.8125 991.65234375 C-169.79738689 990.45530672 -170.78449175 989.2600922 -171.7734375 988.06640625 C-195.23654654 959.67337559 -214.90066114 928.78061783 -232.8125 896.65234375 C-233.22822266 895.91032715 -233.64394531 895.16831055 -234.07226562 894.40380859 C-272.05918066 826.09264183 -293.94451829 747.40648116 -303 670.08984375 C-303.15500977 668.77943115 -303.31001953 667.46901855 -303.46972656 666.11889648 C-306.17896775 642.26331967 -307.19703795 618.38314076 -307.13055801 594.38388443 C-307.12488563 592.29778211 -307.12208493 590.21168803 -307.11947632 588.12557983 C-307.07790538 565.20113965 -306.37164081 542.44775632 -303.8125 519.65234375 C-303.72764343 518.88734558 -303.64278687 518.12234741 -303.55535889 517.33416748 C-295.77557327 447.89411678 -277.48961209 379.96351622 -247.8125 316.65234375 C-247.36970703 315.69585938 -246.92691406 314.739375 -246.47070312 313.75390625 C-239.29599906 298.28252793 -231.44442712 283.35800388 -222.8125 268.65234375 C-222.04655518 267.33943359 -222.04655518 267.33943359 -221.26513672 266 C-205.32653393 238.7440158 -187.13654731 212.82616794 -166.8125 188.65234375 C-166.37647461 188.13140137 -165.94044922 187.61045898 -165.49121094 187.07373047 C-159.11321167 179.47021571 -152.53427366 172.09441172 -145.70825195 164.88964844 C-141.94757116 160.91389873 -138.33612852 156.83974038 -134.8125 152.65234375 C-138.85151407 152.47602083 -142.25932673 153.11755041 -146.16796875 154.12109375 Z M4.76185608 242.30601501 C3.20164874 243.64024429 1.6301018 244.95980472 0.05517578 246.27661133 C-7.95672887 253.01011159 -15.53788798 260.06221811 -22.90991211 267.48901367 C-24.63498477 269.22489106 -26.37061991 270.94969465 -28.10742188 272.67382812 C-34.80006692 279.35815866 -40.95824647 286.21279913 -46.8125 293.65234375 C-47.81322196 294.87241045 -48.81673269 296.09020035 -49.82421875 297.3046875 C-69.75732953 321.65075029 -85.77839602 348.54762939 -99.8125 376.65234375 C-100.21130371 377.44205566 -100.61010742 378.23176758 -101.02099609 379.04541016 C-125.00516733 426.778914 -138.93547365 479.81852135 -145.125 532.71484375 C-145.20640228 533.40982971 -145.28780457 534.10481567 -145.37167358 534.82086182 C-147.49523409 553.23601463 -148.05328363 571.4432269 -148.0625 589.96484375 C-148.06317474 591.18543488 -148.06384949 592.406026 -148.06454468 593.66360474 C-148.04717876 613.49629409 -147.39366623 632.98156046 -144.8125 652.65234375 C-144.72528687 653.3184668 -144.63807373 653.98458984 -144.54821777 654.67089844 C-142.00823356 673.87760437 -138.43097029 692.8337156 -133.8125 711.65234375 C-133.55774902 712.69986816 -133.30299805 713.74739258 -133.04052734 714.82666016 C-122.24626683 758.59248006 -104.88866013 800.74528346 -81.8125 839.46484375 C-81.20172607 840.49053467 -80.59095215 841.51622559 -79.96166992 842.57299805 C-70.64417208 857.86282353 -57.89923478 868.88268325 -40.14708254 873.22418161 C-35.85209115 874.01188248 -31.56163809 873.92811633 -27.20730877 873.90961266 C-26.15795864 873.91311873 -25.10860851 873.9166248 -24.02745989 873.92023712 C-20.50585856 873.92955229 -16.98442255 873.92462742 -13.46281433 873.91976929 C-10.91462151 873.92350547 -8.36642984 873.92810686 -5.81823999 873.93349993 C-0.27510983 873.94319022 5.26797035 873.9466444 10.81110764 873.94458771 C19.05410075 873.94153675 27.29705523 873.94986377 35.54004083 873.96033696 C51.11878775 873.97967771 66.6975215 873.9853052 82.27627901 873.98645107 C94.3064131 873.98737016 106.33654202 873.99148682 118.36667442 873.99785233 C121.82951646 873.99964741 125.29235851 874.00142704 128.75520056 874.00320208 C129.61607065 874.00364418 130.47694073 874.00408627 131.36389778 874.00454177 C155.57799797 874.01684987 179.79209638 874.02474292 204.00619984 874.02385521 C205.375553 874.02380847 205.375553 874.02380847 206.77256987 874.02376079 C211.39954312 874.02359458 216.02651637 874.0233965 220.65348963 874.02319138 C222.03189186 874.02313154 222.03189186 874.02313154 223.43814061 874.0230705 C225.29645031 874.02298962 227.15476001 874.02290603 229.01306971 874.02281971 C257.92841098 874.02159408 286.84370535 874.03660989 315.7590332 874.06396484 C348.24453491 874.09468464 380.7300058 874.11189743 413.21552294 874.1100384 C416.67930806 874.10988914 420.14309317 874.10979172 423.60687828 874.10972977 C424.45975162 874.10970646 425.31262496 874.10968315 426.19134295 874.10965913 C439.9168048 874.10959759 453.64222593 874.12236971 467.36767567 874.1395943 C481.16114256 874.15654628 494.95454986 874.158528 508.7480214 874.14537565 C516.94198086 874.13798381 525.13575935 874.14165144 533.32969964 874.16126033 C539.44853714 874.17466589 545.56718153 874.16715601 551.68600997 874.15151389 C554.16105229 874.14843305 556.63611416 874.15211694 559.11113343 874.16323404 C562.47600502 874.17734761 565.83994529 874.16677351 569.20478535 874.15012169 C570.1650869 874.16005805 571.12538845 874.16999441 572.11479005 874.18023187 C584.35066034 874.05226513 593.09680833 869.21002216 601.90234375 861.06640625 C611.18782659 851.3792613 612.33800422 838.7932399 612.32794189 826.07797241 C612.33091302 824.90524957 612.33388414 823.73252673 612.3369453 822.52426684 C612.34410899 819.27732854 612.34680332 816.03042254 612.34754276 812.78347754 C612.34939816 809.27820227 612.35694796 805.77293835 612.36367798 802.26766968 C612.37724247 794.60630814 612.38328316 786.94495185 612.38768864 779.2835803 C612.39045441 774.49636061 612.39469239 769.70914293 612.39919281 764.92192459 C612.41138332 751.65784774 612.42168287 738.3937725 612.4250679 725.12969017 C612.42539725 723.85702632 612.42539725 723.85702632 612.42573325 722.55865208 C612.42595153 721.70822117 612.42616981 720.85779026 612.4263947 719.98158872 C612.42683816 718.25839639 612.42728472 716.53520405 612.42773438 714.81201172 C612.42806652 713.52987724 612.42806652 713.52987724 612.42840537 712.22184105 C612.43235142 698.37900527 612.44980051 684.53622218 612.4730939 670.69340675 C612.49683616 656.46856066 612.50927107 642.24374098 612.51043582 628.01887476 C612.511351 620.03726684 612.51706354 612.05572759 612.53525543 604.07413864 C612.55069531 597.27619427 612.55575406 590.4783398 612.54751733 583.68038122 C612.54362445 580.21557923 612.54447321 576.75095805 612.55857468 573.28617859 C612.57131225 569.52017051 612.5654069 565.75462223 612.55499268 561.98861694 C612.56304908 560.90707065 612.57110548 559.82552436 612.57940602 558.71120393 C612.50076367 546.4979573 609.9611517 534.80141344 601.34179688 525.7043457 C595.19905985 520.11110707 588.56580603 516.09466837 581.3125 512.08984375 C580.07946366 511.39841074 578.84697079 510.70600776 577.61499023 510.01269531 C574.43835377 508.22888052 571.25430782 506.45881159 568.06719971 504.69378662 C565.652991 503.35620039 563.24145425 502.01383966 560.8298645 500.67153931 C556.83840067 498.4500769 552.84519383 496.23181079 548.84863281 494.01953125 C541.20572201 489.78763566 533.60572419 485.4873876 526.03076172 481.13525391 C519.34112641 477.2966866 512.61226461 473.53156271 505.875 469.77734375 C497.52554639 465.12248643 489.24062993 460.37209868 481 455.52734375 C472.57714207 450.57674926 464.07168396 445.82319165 455.47143555 441.1887207 C448.66641187 437.50406122 441.97900534 433.64381175 435.3125 429.71484375 C426.30424927 424.40918309 417.19095032 419.34923167 407.97924805 414.40649414 C398.8402352 409.4937612 389.84200896 404.35472711 380.85009766 399.17919922 C376.18306906 396.50291123 371.49764185 393.85925467 366.8125 391.21484375 C365.85448486 390.67400146 364.89646973 390.13315918 363.90942383 389.57592773 C361.96832182 388.48019951 360.02715961 387.38457793 358.0859375 386.2890625 C355.22294414 384.6723587 352.36124501 383.05338948 349.5 381.43359375 C339.53501213 375.79339006 329.55776079 370.17624238 319.5625 364.58984375 C311.05845798 359.83627887 302.58350253 355.03573952 294.13354492 350.18676758 C287.40824376 346.33365761 280.64538278 342.55055484 273.875 338.77734375 C265.52557707 334.12242965 257.24063134 329.37209951 249 324.52734375 C240.57714207 319.57674926 232.07168396 314.82319165 223.47143555 310.1887207 C216.66641187 306.50406122 209.97900534 302.64381175 203.3125 298.71484375 C194.30424927 293.40918309 185.19095032 288.34923167 175.97924805 283.40649414 C166.83738184 278.49222736 157.83614371 273.35176091 148.84130859 268.17480469 C144.2179588 265.52243952 139.57817179 262.89925024 134.9375 260.27734375 C133.9889917 259.74125488 133.0404834 259.20516602 132.06323242 258.65283203 C126.99636788 255.79237487 121.9234679 252.94304011 116.84375 250.10546875 C115.78567139 249.51419189 114.72759277 248.92291504 113.63745117 248.3137207 C111.5136502 247.12810601 109.38882062 245.94433189 107.26293945 244.76245117 C102.44727377 242.07694372 97.66252663 239.3619415 92.94921875 236.5 C62.8631195 218.27289559 32.13556008 218.76471264 4.76185608 242.30601501 Z " fill="#DFAD70" transform="translate(2060.8125,484.34765625)"/>
<path d="M0 0 C18.48337038 -0.02356719 36.96673676 -0.04109429 55.45011902 -0.05181217 C64.03608712 -0.05692531 72.62204578 -0.06387049 81.20800781 -0.07543945 C88.70879086 -0.08554122 96.20956705 -0.09188942 103.71035671 -0.09408849 C107.66625761 -0.0953699 111.62213895 -0.09828601 115.57803345 -0.10573006 C125.71931641 -0.12381311 135.85913408 -0.09627677 146 0 C146.72051796 0.00613642 147.44103592 0.01227284 148.18338776 0.01859522 C152.52382744 0.05779654 156.86291193 0.12094474 161.20251656 0.21514237 C163.16451149 0.25431852 165.12682532 0.27640506 167.08909607 0.29767513 C186.17094021 0.79762188 203.21875915 7.53339935 217 21 C230.05193742 35.88704394 236 52.27451555 236 72 C234.77206293 89.90102014 228.21517981 106.55260352 215 119 C197.53415503 133.6357312 178.36074822 138.65373422 156 137 C140.87107179 135.23324308 127.92156669 126.96971825 117.41357422 116.39697266 C115.12567109 114.13593954 112.70992771 112.01869723 110.3125 109.875 C104.38107978 104.49267463 98.75114371 98.81225488 93.13793945 93.10107422 C89.87863505 89.80120718 86.59803469 86.60019886 83.078125 83.578125 C77.428533 78.71465947 72.29186021 73.33667337 67.06640625 68.02734375 C63.47063773 64.39660828 59.87853044 60.82942643 56 57.5 C50.37187243 52.66867614 45.26563402 47.31002622 40.06640625 42.02734375 C36.47321304 38.39920863 32.88404164 34.83430427 29.0078125 31.5078125 C24.20644478 27.38653876 19.81141029 22.8818295 15.375 18.375 C9.17162467 11.96357223 9.17162467 11.96357223 2.4140625 6.1640625 C1.61742188 5.44992187 0.82078125 4.73578125 0 4 C0 2.68 0 1.36 0 0 Z " fill="#DFAD70" transform="translate(2101,958)"/>
</svg>
